# This file uses centimeters as units for non-parametric coordinates.

mtllib demon.mtl
g default
v 15.043186 -96.848907 35.066010
v 28.065964 -80.872612 31.192141
v 52.004669 -77.591591 49.875870
v 57.465942 -133.874176 67.751556
v 76.845230 -125.729401 51.584320
v 96.638466 -115.386795 72.207245
v 57.198685 -165.831985 70.402107
v 71.338547 -162.913254 64.506912
v 81.146889 -160.166092 75.014053
v 57.352386 -139.846756 68.735741
v 79.455521 -139.355362 52.547798
v 99.824554 -138.530701 73.375679
v 53.019173 -152.859482 66.571198
v 70.688034 -154.069778 59.470215
v 82.331146 -155.687454 72.615929
v 44.384930 -125.648811 51.164459
v 62.052223 -113.080513 34.475716
v 78.369789 -101.774307 52.339592
v 103.337296 -189.348953 89.872421
v 106.168098 -189.205536 89.282196
v 106.024910 -186.074295 89.889801
v 77.935379 -178.114944 78.992569
v 85.425888 -173.786407 75.056358
v 89.814346 -170.588242 78.600029
v 20.060818 -87.922096 32.727551
v 54.051174 -119.063736 39.397385
v 67.460472 -129.915726 55.587593
v 68.252823 -139.341797 58.417122
v 65.082909 -164.389893 64.954697
v 81.457680 -176.098511 76.181725
v 62.927517 -153.398788 62.478523
v 104.875679 -189.507843 89.577286
v 40.804016 -77.951019 38.091923
v 71.760490 -106.086487 41.569046
v 87.022926 -120.929092 58.793106
v 91.145630 -139.234253 58.692398
v 77.322464 -155.055649 63.479378
v 76.236847 -161.605774 67.758507
v 87.504562 -172.276398 76.473152
v 106.588394 -188.208694 89.585999
v 29.796249 -113.873184 49.309547
v 62.919521 -87.272728 50.905838
v 38.875099 -107.346237 39.364899
v 48.001945 -99.765427 33.118256
v 56.357704 -92.767921 39.906548
v -15.101863 -96.848907 35.066010
v -28.124641 -80.872612 31.192141
v -52.063347 -77.591591 49.875870
v -57.524620 -133.874176 67.751556
v -76.903908 -125.729401 51.584320
v -96.697144 -115.386795 72.207245
v -57.257362 -165.831985 70.402107
v -71.397224 -162.913254 64.506912
v -81.205566 -160.166092 75.014053
v -57.411064 -139.846756 68.735741
v -79.514198 -139.355362 52.547798
v -99.883232 -138.530701 73.375679
v -53.077850 -152.859482 66.571198
v -70.746712 -154.069778 59.470215
v -82.389824 -155.687454 72.615929
v -44.443607 -125.648811 51.164459
v -62.110901 -113.080513 34.475716
v -78.428467 -101.774307 52.339592
v -103.395973 -189.348953 89.872421
v -106.226776 -189.205536 89.282196
v -106.083588 -186.074295 89.889801
v -77.994057 -178.114944 78.992569
v -85.484566 -173.786407 75.056358
v -89.873024 -170.588242 78.600029
v -20.119495 -87.922096 32.727551
v -54.109852 -119.063736 39.397385
v -67.519150 -129.915726 55.587593
v -68.311501 -139.341797 58.417122
v -65.141586 -164.389893 64.954697
v -81.516357 -176.098511 76.181725
v -62.986195 -153.398788 62.478523
v -104.934357 -189.507843 89.577286
v -40.862694 -77.951019 38.091923
v -71.819168 -106.086487 41.569046
v -87.081604 -120.929092 58.793106
v -91.204308 -139.234253 58.692398
v -77.381142 -155.055649 63.479378
v -76.295525 -161.605774 67.758507
v -87.563240 -172.276398 76.473152
v -106.647072 -188.208694 89.585999
v -29.854927 -113.873184 49.309547
v -62.978199 -87.272728 50.905838
v -38.933777 -107.346237 39.364899
v -48.060623 -99.765427 33.118256
v -56.416382 -92.767921 39.906548
vt 0.354645 0.030570
vt 0.509170 0.030570
vt 0.675799 0.030570
vt 0.412336 0.333853
vt 0.509170 0.335536
vt 0.606365 0.335016
vt 0.460859 0.684259
vt 0.509170 0.685813
vt 0.556200 0.686071
vt 0.425660 0.432206
vt 0.509170 0.432331
vt 0.584448 0.432354
vt 0.448386 0.557214
vt 0.510412 0.557344
vt 0.567817 0.557381
vt 0.385991 0.232668
vt 0.509170 0.232539
vt 0.646472 0.232786
vt 0.505369 0.981296
vt 0.508055 0.976916
vt 0.520762 0.981325
vt 0.485780 0.808778
vt 0.509170 0.808875
vt 0.538449 0.808943
vt 0.423624 0.029669
vt 0.440638 0.232116
vt 0.457190 0.335650
vt 0.466538 0.432196
vt 0.482713 0.683283
vt 0.495841 0.805710
vt 0.475273 0.556311
vt 0.508054 0.976914
vt 0.577813 0.232237
vt 0.593545 0.029794
vt 0.553664 0.432273
vt 0.562262 0.336072
vt 0.545548 0.556513
vt 0.526473 0.806224
vt 0.538501 0.684415
vt 0.515148 0.977538
vt 0.372576 0.142788
vt 0.660740 0.142802
vt 0.432585 0.142739
vt 0.509170 0.142779
vt 0.585342 0.142752
vt 0.423624 0.029669
vt 0.432585 0.142739
vt 0.372576 0.142788
vt 0.354645 0.030570
vt 0.457190 0.335650
vt 0.466538 0.432196
vt 0.425660 0.432206
vt 0.412336 0.333853
vt 0.475273 0.556311
vt 0.448386 0.557214
vt 0.440638 0.232116
vt 0.385991 0.232668
vt 0.482713 0.683283
vt 0.495841 0.805710
vt 0.485780 0.808778
vt 0.460859 0.684259
vt 0.505369 0.981296
vt 0.508054 0.976914
vt 0.577813 0.232237
vt 0.585342 0.142752
vt 0.660740 0.142802
vt 0.646472 0.232786
vt 0.553664 0.432273
vt 0.562262 0.336072
vt 0.606365 0.335016
vt 0.584448 0.432354
vt 0.545548 0.556513
vt 0.567817 0.557381
vt 0.509170 0.232539
vt 0.509170 0.142779
vt 0.509170 0.335536
vt 0.509170 0.432331
vt 0.510412 0.557344
vt 0.509170 0.685813
vt 0.593545 0.029794
vt 0.509170 0.030570
vt 0.526473 0.806224
vt 0.538501 0.684415
vt 0.556200 0.686071
vt 0.538449 0.808943
vt 0.509170 0.808875
vt 0.508055 0.976916
vt 0.515148 0.977538
vt 0.520762 0.981325
vt 0.675799 0.030570
vn -0.118558 -0.439950 -0.890162
vn -0.231790 -0.483575 -0.844055
vn -0.264034 -0.578399 -0.771843
vn -0.099419 -0.561987 -0.821149
vn -0.143889 -0.731613 -0.666362
vn -0.516930 -0.109573 -0.848986
vn -0.622330 0.020648 -0.782483
vn -0.317139 -0.738042 -0.595581
vn -0.467684 -0.109539 -0.877082
vn -0.524065 -0.059209 -0.849618
vn -0.159120 -0.693110 -0.703050
vn -0.226126 -0.782923 -0.579567
vn -0.228533 -0.590288 -0.774166
vn -0.046336 -0.722561 -0.689753
vn -0.162709 -0.784331 -0.598624
vn -0.324381 -0.583322 -0.744656
vn -0.089772 -0.783517 -0.614851
vn 0.043495 -0.664010 -0.746457
vn 0.641843 0.193297 -0.742074
vn 0.490825 0.449713 -0.746223
vn 0.573394 0.561181 -0.596904
vn 0.734011 0.298992 -0.609781
vn 0.723236 -0.252544 -0.642769
vn 0.749547 0.084160 -0.656580
vn 0.807855 0.139255 -0.572693
vn 0.822947 -0.196789 -0.532947
vn 0.554879 -0.606173 -0.569792
vn 0.675330 -0.627950 -0.386792
vn 0.270650 -0.261716 -0.926420
vn 0.119173 -0.007016 -0.992849
vn 0.417873 -0.314969 -0.852160
vn 0.201101 -0.245619 -0.948277
vn -0.028018 -0.391179 -0.919888
vn 0.154669 -0.491699 -0.856919
vn 0.456732 0.396037 -0.796587
vn 0.071730 -0.103339 -0.992056
vn 0.648462 0.134464 -0.749277
vn 0.665182 -0.193905 -0.721065
vn 0.784465 0.049298 -0.618211
vn 0.683262 0.227926 -0.693687
vn 0.305204 -0.415626 -0.856800
vn 0.337944 -0.355878 -0.871289
vn 0.603817 0.064123 -0.794540
vn 0.657072 0.167221 -0.735047
vn 0.579485 0.557016 -0.594920
vn 0.118558 -0.439950 -0.890162
vn 0.099419 -0.561987 -0.821149
vn 0.264034 -0.578399 -0.771843
vn 0.231790 -0.483575 -0.844055
vn 0.143889 -0.731613 -0.666362
vn 0.317139 -0.738042 -0.595581
vn 0.622330 0.020648 -0.782483
vn 0.516930 -0.109573 -0.848986
vn 0.524065 -0.059209 -0.849618
vn 0.467684 -0.109538 -0.877082
vn 0.159120 -0.693110 -0.703050
vn 0.226126 -0.782923 -0.579568
vn 0.228532 -0.590287 -0.774167
vn 0.324381 -0.583321 -0.744657
vn 0.162708 -0.784331 -0.598625
vn 0.046336 -0.722560 -0.689754
vn 0.089772 -0.783517 -0.614851
vn -0.043496 -0.664009 -0.746458
vn -0.641843 0.193296 -0.742074
vn -0.734010 0.298992 -0.609781
vn -0.573394 0.561181 -0.596904
vn -0.490826 0.449713 -0.746223
vn -0.723236 -0.252543 -0.642769
vn -0.822947 -0.196788 -0.532947
vn -0.807855 0.139255 -0.572693
vn -0.749547 0.084160 -0.656580
vn -0.554879 -0.606173 -0.569792
vn -0.675330 -0.627950 -0.386793
vn -0.270650 -0.261716 -0.926420
vn -0.119173 -0.007016 -0.992849
vn -0.417873 -0.314970 -0.852160
vn -0.201101 -0.245619 -0.948277
vn 0.028018 -0.391179 -0.919888
vn -0.154669 -0.491698 -0.856919
vn -0.456732 0.396037 -0.796587
vn -0.071730 -0.103339 -0.992056
vn -0.648462 0.134464 -0.749277
vn -0.683262 0.227926 -0.693688
vn -0.784465 0.049298 -0.618211
vn -0.665182 -0.193905 -0.721065
vn -0.305204 -0.415625 -0.856800
vn -0.337944 -0.355877 -0.871289
vn -0.603816 0.064124 -0.794540
vn -0.657070 0.167224 -0.735047
vn -0.579485 0.557017 -0.594920
s 1
g horn
usemtl lambert5SG
f 25/25/1 43/43/2 41/41/3 1/1/4
f 27/27/5 28/28/6 10/10/7 4/4/8
f 28/28/6 31/31/9 13/13/10 10/10/7
f 26/26/11 27/27/5 4/4/8 16/16/12
f 29/29/13 30/30/14 22/22/15 7/7/16
f 13/13/10 31/31/9 29/29/13 7/7/16
f 19/19/17 22/22/15 30/30/14 32/32/18
f 34/33/19 45/45/20 42/42/21 18/18/22
f 36/35/23 35/36/24 6/6/25 12/12/26
f 37/37/27 36/35/23 12/12/26 15/15/28
f 35/36/24 34/33/19 18/18/22 6/6/25
f 17/17/29 26/26/11 43/43/2 44/44/30
f 5/5/31 27/27/5 26/26/11 17/17/29
f 28/28/6 27/27/5 5/5/31 11/11/32
f 14/14/33 31/31/9 28/28/6 11/11/32
f 8/8/34 29/29/13 31/31/9 14/14/33
f 36/35/23 37/37/27 14/14/33 11/11/32
f 35/36/24 36/35/23 11/11/32 5/5/31
f 34/33/19 35/36/24 5/5/31 17/17/29
f 33/34/35 45/45/20 44/44/30 2/2/36
f 39/38/37 38/39/38 9/9/39 24/24/40
f 9/9/39 38/39/38 37/37/27 15/15/28
f 30/30/14 29/29/13 8/8/34 23/23/41
f 23/23/41 20/20/42 32/32/18 30/30/14
f 38/39/38 39/38/37 23/23/41 8/8/34
f 37/37/27 38/39/38 8/8/34 14/14/33
f 40/40/43 20/20/42 23/23/41 39/38/37
f 40/40/43 39/38/37 24/24/40 21/21/44
f 41/41/3 43/43/2 26/26/11 16/16/12
f 42/42/21 45/45/20 33/34/35 3/3/45
f 44/44/30 43/43/2 25/25/1 2/2/36
f 44/44/30 45/45/20 34/33/19 17/17/29
s 7
f 70/46/46 46/49/47 86/48/48 88/47/49
f 72/50/50 49/53/51 55/52/52 73/51/53
f 73/51/53 55/52/52 58/55/54 76/54/55
f 71/56/56 61/57/57 49/53/51 72/50/50
f 74/58/58 52/61/59 67/60/60 75/59/61
f 58/55/54 52/61/59 74/58/58 76/54/55
f 64/62/62 77/63/63 75/59/61 67/60/60
f 79/64/64 63/67/65 87/66/66 90/65/67
f 81/68/68 57/71/69 51/70/70 80/69/71
f 82/72/72 60/73/73 57/71/69 81/68/68
f 80/69/71 51/70/70 63/67/65 79/64/64
f 62/74/74 89/75/75 88/47/49 71/56/56
f 50/76/76 62/74/74 71/56/56 72/50/50
f 73/51/53 56/77/77 50/76/76 72/50/50
f 59/78/78 56/77/77 73/51/53 76/54/55
f 53/79/79 59/78/78 76/54/55 74/58/58
f 81/68/68 56/77/77 59/78/78 82/72/72
f 80/69/71 50/76/76 56/77/77 81/68/68
f 79/64/64 62/74/74 50/76/76 80/69/71
f 78/80/80 47/81/81 89/75/75 90/65/67
f 84/82/82 69/85/83 54/84/84 83/83/85
f 54/84/84 60/73/73 82/72/72 83/83/85
f 75/59/61 68/86/86 53/79/79 74/58/58
f 68/86/86 75/59/61 77/63/63 65/87/87
f 83/83/85 53/79/79 68/86/86 84/82/82
f 82/72/72 59/78/78 53/79/79 83/83/85
f 85/88/88 84/82/82 68/86/86 65/87/87
f 85/88/88 66/89/89 69/85/83 84/82/82
f 86/48/48 61/57/57 71/56/56 88/47/49
f 87/66/66 48/90/90 78/80/80 90/65/67
f 89/75/75 47/81/81 70/46/46 88/47/49
f 89/75/75 62/74/74 79/64/64 90/65/67
